<mxfile host="app.diagrams.net" modified="2020-12-09T08:19:00.819Z" agent="5.0 (Macintosh; Intel Mac OS X 10_15_6) AppleWebKit/537.36 (KHTML, like Gecko) Chrome/86.0.4240.193 Safari/537.36" etag="hQjRq1yfv-9wwAZHKxEG" version="13.10.3" type="github">
  <diagram id="2bSotW9APmBdAfbR0I6h" name="Page-1">
    <mxGraphModel dx="946" dy="538" grid="1" gridSize="10" guides="1" tooltips="1" connect="1" arrows="1" fold="1" page="1" pageScale="1" pageWidth="827" pageHeight="1169" math="0" shadow="0">
      <root>
        <mxCell id="0" />
        <mxCell id="1" parent="0" />
        <mxCell id="TkAn_hDF74joEbJloFPE-1" style="edgeStyle=orthogonalEdgeStyle;rounded=0;sketch=1;orthogonalLoop=1;jettySize=auto;html=1;exitX=1;exitY=0.25;exitDx=0;exitDy=0;entryX=0;entryY=0.25;entryDx=0;entryDy=0;" edge="1" parent="1" source="TkAn_hDF74joEbJloFPE-2" target="TkAn_hDF74joEbJloFPE-14">
          <mxGeometry relative="1" as="geometry" />
        </mxCell>
        <mxCell id="TkAn_hDF74joEbJloFPE-2" value="" style="rounded=1;whiteSpace=wrap;html=1;sketch=1;" vertex="1" parent="1">
          <mxGeometry x="61" y="339.5" width="160" height="260" as="geometry" />
        </mxCell>
        <mxCell id="TkAn_hDF74joEbJloFPE-3" value="" style="edgeStyle=orthogonalEdgeStyle;rounded=0;orthogonalLoop=1;jettySize=auto;html=1;sketch=1;" edge="1" parent="1" source="TkAn_hDF74joEbJloFPE-4" target="TkAn_hDF74joEbJloFPE-8">
          <mxGeometry relative="1" as="geometry" />
        </mxCell>
        <mxCell id="TkAn_hDF74joEbJloFPE-4" value="最小记录" style="rounded=1;whiteSpace=wrap;html=1;sketch=1;fillColor=#f5f5f5;strokeColor=#666666;fontColor=#333333;" vertex="1" parent="1">
          <mxGeometry x="86" y="354.5" width="110" height="30" as="geometry" />
        </mxCell>
        <mxCell id="TkAn_hDF74joEbJloFPE-5" value="" style="edgeStyle=orthogonalEdgeStyle;rounded=0;orthogonalLoop=1;jettySize=auto;html=1;sketch=1;" edge="1" parent="1" source="TkAn_hDF74joEbJloFPE-6" target="TkAn_hDF74joEbJloFPE-11">
          <mxGeometry relative="1" as="geometry" />
        </mxCell>
        <mxCell id="TkAn_hDF74joEbJloFPE-6" value="3 b 9" style="rounded=1;whiteSpace=wrap;html=1;sketch=1;fillColor=#dae8fc;strokeColor=#6c8ebf;" vertex="1" parent="1">
          <mxGeometry x="86" y="504.5" width="110" height="30" as="geometry" />
        </mxCell>
        <mxCell id="TkAn_hDF74joEbJloFPE-7" value="" style="edgeStyle=orthogonalEdgeStyle;rounded=0;orthogonalLoop=1;jettySize=auto;html=1;sketch=1;" edge="1" parent="1" source="TkAn_hDF74joEbJloFPE-8" target="TkAn_hDF74joEbJloFPE-10">
          <mxGeometry relative="1" as="geometry" />
        </mxCell>
        <mxCell id="TkAn_hDF74joEbJloFPE-8" value="1 a 10&amp;nbsp;" style="rounded=1;whiteSpace=wrap;html=1;sketch=1;fillColor=#dae8fc;strokeColor=#6c8ebf;" vertex="1" parent="1">
          <mxGeometry x="86" y="404.5" width="110" height="30" as="geometry" />
        </mxCell>
        <mxCell id="TkAn_hDF74joEbJloFPE-9" value="" style="edgeStyle=orthogonalEdgeStyle;rounded=0;orthogonalLoop=1;jettySize=auto;html=1;sketch=1;" edge="1" parent="1" source="TkAn_hDF74joEbJloFPE-10" target="TkAn_hDF74joEbJloFPE-6">
          <mxGeometry relative="1" as="geometry" />
        </mxCell>
        <mxCell id="TkAn_hDF74joEbJloFPE-10" value="2 c 12" style="rounded=1;whiteSpace=wrap;html=1;sketch=1;fillColor=#dae8fc;strokeColor=#6c8ebf;" vertex="1" parent="1">
          <mxGeometry x="86" y="454.5" width="110" height="30" as="geometry" />
        </mxCell>
        <mxCell id="TkAn_hDF74joEbJloFPE-11" value="最大记录" style="rounded=1;whiteSpace=wrap;html=1;sketch=1;fillColor=#f5f5f5;strokeColor=#666666;fontColor=#333333;" vertex="1" parent="1">
          <mxGeometry x="86" y="554" width="110" height="30" as="geometry" />
        </mxCell>
        <mxCell id="TkAn_hDF74joEbJloFPE-12" style="edgeStyle=orthogonalEdgeStyle;rounded=0;sketch=1;orthogonalLoop=1;jettySize=auto;html=1;exitX=1;exitY=0.25;exitDx=0;exitDy=0;entryX=0;entryY=0.25;entryDx=0;entryDy=0;" edge="1" parent="1" source="TkAn_hDF74joEbJloFPE-14" target="TkAn_hDF74joEbJloFPE-25">
          <mxGeometry relative="1" as="geometry" />
        </mxCell>
        <mxCell id="TkAn_hDF74joEbJloFPE-13" style="edgeStyle=orthogonalEdgeStyle;rounded=0;sketch=1;orthogonalLoop=1;jettySize=auto;html=1;exitX=0;exitY=0.75;exitDx=0;exitDy=0;entryX=1;entryY=0.75;entryDx=0;entryDy=0;" edge="1" parent="1" source="TkAn_hDF74joEbJloFPE-14" target="TkAn_hDF74joEbJloFPE-2">
          <mxGeometry relative="1" as="geometry" />
        </mxCell>
        <mxCell id="TkAn_hDF74joEbJloFPE-14" value="" style="rounded=1;whiteSpace=wrap;html=1;sketch=1;" vertex="1" parent="1">
          <mxGeometry x="310" y="339.5" width="160" height="260" as="geometry" />
        </mxCell>
        <mxCell id="TkAn_hDF74joEbJloFPE-15" value="" style="edgeStyle=orthogonalEdgeStyle;rounded=0;orthogonalLoop=1;jettySize=auto;html=1;sketch=1;" edge="1" parent="1" source="TkAn_hDF74joEbJloFPE-16" target="TkAn_hDF74joEbJloFPE-20">
          <mxGeometry relative="1" as="geometry" />
        </mxCell>
        <mxCell id="TkAn_hDF74joEbJloFPE-16" value="最小记录" style="rounded=1;whiteSpace=wrap;html=1;sketch=1;fillColor=#f5f5f5;strokeColor=#666666;fontColor=#333333;" vertex="1" parent="1">
          <mxGeometry x="335" y="355" width="110" height="30" as="geometry" />
        </mxCell>
        <mxCell id="TkAn_hDF74joEbJloFPE-17" value="" style="edgeStyle=orthogonalEdgeStyle;rounded=0;orthogonalLoop=1;jettySize=auto;html=1;sketch=1;" edge="1" parent="1" source="TkAn_hDF74joEbJloFPE-18" target="TkAn_hDF74joEbJloFPE-23">
          <mxGeometry relative="1" as="geometry" />
        </mxCell>
        <mxCell id="TkAn_hDF74joEbJloFPE-18" value="6 l 13" style="rounded=1;whiteSpace=wrap;html=1;sketch=1;fillColor=#dae8fc;strokeColor=#6c8ebf;" vertex="1" parent="1">
          <mxGeometry x="335" y="505" width="110" height="30" as="geometry" />
        </mxCell>
        <mxCell id="TkAn_hDF74joEbJloFPE-19" value="" style="edgeStyle=orthogonalEdgeStyle;rounded=0;orthogonalLoop=1;jettySize=auto;html=1;sketch=1;" edge="1" parent="1" source="TkAn_hDF74joEbJloFPE-20" target="TkAn_hDF74joEbJloFPE-22">
          <mxGeometry relative="1" as="geometry" />
        </mxCell>
        <mxCell id="TkAn_hDF74joEbJloFPE-20" value="4 d 15" style="rounded=1;whiteSpace=wrap;html=1;sketch=1;fillColor=#dae8fc;strokeColor=#6c8ebf;" vertex="1" parent="1">
          <mxGeometry x="335" y="405" width="110" height="30" as="geometry" />
        </mxCell>
        <mxCell id="TkAn_hDF74joEbJloFPE-21" value="" style="edgeStyle=orthogonalEdgeStyle;rounded=0;orthogonalLoop=1;jettySize=auto;html=1;sketch=1;" edge="1" parent="1" source="TkAn_hDF74joEbJloFPE-22" target="TkAn_hDF74joEbJloFPE-18">
          <mxGeometry relative="1" as="geometry" />
        </mxCell>
        <mxCell id="TkAn_hDF74joEbJloFPE-22" value="5 h 17" style="rounded=1;whiteSpace=wrap;html=1;sketch=1;fillColor=#dae8fc;strokeColor=#6c8ebf;" vertex="1" parent="1">
          <mxGeometry x="335" y="455" width="110" height="30" as="geometry" />
        </mxCell>
        <mxCell id="TkAn_hDF74joEbJloFPE-23" value="最大记录" style="rounded=1;whiteSpace=wrap;html=1;sketch=1;fillColor=#f5f5f5;strokeColor=#666666;fontColor=#333333;" vertex="1" parent="1">
          <mxGeometry x="335" y="554.5" width="110" height="30" as="geometry" />
        </mxCell>
        <mxCell id="TkAn_hDF74joEbJloFPE-24" style="edgeStyle=orthogonalEdgeStyle;rounded=0;sketch=1;orthogonalLoop=1;jettySize=auto;html=1;exitX=0;exitY=0.75;exitDx=0;exitDy=0;entryX=1;entryY=0.75;entryDx=0;entryDy=0;" edge="1" parent="1" source="TkAn_hDF74joEbJloFPE-25" target="TkAn_hDF74joEbJloFPE-14">
          <mxGeometry relative="1" as="geometry" />
        </mxCell>
        <mxCell id="TkAn_hDF74joEbJloFPE-25" value="" style="rounded=1;whiteSpace=wrap;html=1;sketch=1;" vertex="1" parent="1">
          <mxGeometry x="560" y="339.5" width="160" height="260" as="geometry" />
        </mxCell>
        <mxCell id="TkAn_hDF74joEbJloFPE-26" value="" style="edgeStyle=orthogonalEdgeStyle;rounded=0;orthogonalLoop=1;jettySize=auto;html=1;sketch=1;" edge="1" parent="1" source="TkAn_hDF74joEbJloFPE-27" target="TkAn_hDF74joEbJloFPE-29">
          <mxGeometry relative="1" as="geometry" />
        </mxCell>
        <mxCell id="TkAn_hDF74joEbJloFPE-27" value="最小记录" style="rounded=1;whiteSpace=wrap;html=1;sketch=1;fillColor=#f5f5f5;strokeColor=#666666;fontColor=#333333;" vertex="1" parent="1">
          <mxGeometry x="585" y="374" width="110" height="30" as="geometry" />
        </mxCell>
        <mxCell id="TkAn_hDF74joEbJloFPE-28" value="" style="edgeStyle=orthogonalEdgeStyle;rounded=0;orthogonalLoop=1;jettySize=auto;html=1;sketch=1;" edge="1" parent="1" source="TkAn_hDF74joEbJloFPE-29" target="TkAn_hDF74joEbJloFPE-31">
          <mxGeometry relative="1" as="geometry" />
        </mxCell>
        <mxCell id="TkAn_hDF74joEbJloFPE-29" value="7 k 12" style="rounded=1;whiteSpace=wrap;html=1;sketch=1;fillColor=#dae8fc;strokeColor=#6c8ebf;" vertex="1" parent="1">
          <mxGeometry x="585" y="424" width="110" height="30" as="geometry" />
        </mxCell>
        <mxCell id="TkAn_hDF74joEbJloFPE-30" value="" style="edgeStyle=orthogonalEdgeStyle;rounded=0;orthogonalLoop=1;jettySize=auto;html=1;sketch=1;" edge="1" parent="1" source="TkAn_hDF74joEbJloFPE-31">
          <mxGeometry relative="1" as="geometry">
            <mxPoint x="640" y="524" as="targetPoint" />
          </mxGeometry>
        </mxCell>
        <mxCell id="TkAn_hDF74joEbJloFPE-31" value="8 x 9" style="rounded=1;whiteSpace=wrap;html=1;sketch=1;fillColor=#dae8fc;strokeColor=#6c8ebf;" vertex="1" parent="1">
          <mxGeometry x="585" y="474" width="110" height="30" as="geometry" />
        </mxCell>
        <mxCell id="TkAn_hDF74joEbJloFPE-32" value="最大记录" style="rounded=1;whiteSpace=wrap;html=1;sketch=1;fillColor=#f5f5f5;strokeColor=#666666;fontColor=#333333;" vertex="1" parent="1">
          <mxGeometry x="584" y="529.5" width="110" height="30" as="geometry" />
        </mxCell>
        <mxCell id="TkAn_hDF74joEbJloFPE-41" style="rounded=0;orthogonalLoop=1;jettySize=auto;html=1;exitX=0.5;exitY=1;exitDx=0;exitDy=0;entryX=0.5;entryY=0;entryDx=0;entryDy=0;sketch=1;" edge="1" parent="1" source="TkAn_hDF74joEbJloFPE-33" target="TkAn_hDF74joEbJloFPE-2">
          <mxGeometry relative="1" as="geometry" />
        </mxCell>
        <mxCell id="TkAn_hDF74joEbJloFPE-33" value="1&lt;br&gt;1" style="rounded=1;whiteSpace=wrap;html=1;sketch=1;" vertex="1" parent="1">
          <mxGeometry x="322.5" y="200" width="45" height="60" as="geometry" />
        </mxCell>
        <mxCell id="TkAn_hDF74joEbJloFPE-42" style="edgeStyle=none;rounded=0;orthogonalLoop=1;jettySize=auto;html=1;exitX=0.5;exitY=1;exitDx=0;exitDy=0;entryX=0.5;entryY=0;entryDx=0;entryDy=0;sketch=1;" edge="1" parent="1" source="TkAn_hDF74joEbJloFPE-34" target="TkAn_hDF74joEbJloFPE-14">
          <mxGeometry relative="1" as="geometry" />
        </mxCell>
        <mxCell id="TkAn_hDF74joEbJloFPE-34" value="4&lt;br&gt;2" style="rounded=1;whiteSpace=wrap;html=1;sketch=1;" vertex="1" parent="1">
          <mxGeometry x="367.5" y="200" width="45" height="60" as="geometry" />
        </mxCell>
        <mxCell id="TkAn_hDF74joEbJloFPE-43" style="edgeStyle=none;rounded=0;orthogonalLoop=1;jettySize=auto;html=1;exitX=0.5;exitY=1;exitDx=0;exitDy=0;entryX=0.563;entryY=0.002;entryDx=0;entryDy=0;entryPerimeter=0;sketch=1;" edge="1" parent="1" source="TkAn_hDF74joEbJloFPE-35" target="TkAn_hDF74joEbJloFPE-25">
          <mxGeometry relative="1" as="geometry" />
        </mxCell>
        <mxCell id="TkAn_hDF74joEbJloFPE-35" value="7&lt;br&gt;3" style="rounded=1;whiteSpace=wrap;html=1;sketch=1;" vertex="1" parent="1">
          <mxGeometry x="412.5" y="200" width="45" height="60" as="geometry" />
        </mxCell>
        <mxCell id="TkAn_hDF74joEbJloFPE-36" value="页1" style="text;html=1;strokeColor=none;fillColor=none;align=center;verticalAlign=middle;whiteSpace=wrap;rounded=0;" vertex="1" parent="1">
          <mxGeometry x="121" y="300" width="40" height="20" as="geometry" />
        </mxCell>
        <mxCell id="TkAn_hDF74joEbJloFPE-37" value="页2" style="text;html=1;strokeColor=none;fillColor=none;align=center;verticalAlign=middle;whiteSpace=wrap;rounded=0;" vertex="1" parent="1">
          <mxGeometry x="373.5" y="300" width="40" height="20" as="geometry" />
        </mxCell>
        <mxCell id="TkAn_hDF74joEbJloFPE-38" value="页3" style="text;html=1;strokeColor=none;fillColor=none;align=center;verticalAlign=middle;whiteSpace=wrap;rounded=0;" vertex="1" parent="1">
          <mxGeometry x="620" y="300" width="40" height="20" as="geometry" />
        </mxCell>
        <mxCell id="TkAn_hDF74joEbJloFPE-39" value="主键" style="text;html=1;strokeColor=none;fillColor=none;align=center;verticalAlign=middle;whiteSpace=wrap;rounded=0;" vertex="1" parent="1">
          <mxGeometry x="260" y="210" width="40" height="20" as="geometry" />
        </mxCell>
        <mxCell id="TkAn_hDF74joEbJloFPE-40" value="页号" style="text;html=1;strokeColor=none;fillColor=none;align=center;verticalAlign=middle;whiteSpace=wrap;rounded=0;" vertex="1" parent="1">
          <mxGeometry x="260" y="230" width="40" height="20" as="geometry" />
        </mxCell>
      </root>
    </mxGraphModel>
  </diagram>
</mxfile>
